# xmcd
#
# Track frame offsets:
#	150
#	17555
#	42415
#	61190
#	92030
#	113860
#	133780
#	155227
#	169552
#	186845
#	208765
#	231542
#	259185
#	289250
#
# Disc length: 4127 seconds
#
# Revision: 1
# Processed by: cddbd v1.4PL0 Copyright (c) Steve Scherf et al.
# Submitted via: audiograbber 1.80
#
DISCID=cf101d0e
DTITLE=The Band - The Last Waltz (New Release) CD1 of 4
DYEAR=1900
DGENRE=
TTITLE0=The Band - Theme From The Last Waltz-with Orchestra
TTITLE1=The Band - Up On Cripple Creek
TTITLE2=The Band - The Shape I'm In
TTITLE3=The Band - It Makes No Difference
TTITLE4=The Band - Who Do You Love-with Ronnie Hawkins
TTITLE5=The Band - Life is a carnival
TTITLE6=The Band - Such A Night-with Dr John
TTITLE7=The Band - The weight
TTITLE8=The Band - Down South In New Orleans-with Bobby Charles
TTITLE9=The Band - This Wheel's On Fire
TTITLE10=The Band - ?
TTITLE11=The Band - Caldonia-with Paul Butterfield
TTITLE12=The Band - Mannish Boy-with Muddy Waters
TTITLE13=The Band - Stagefright
EXTD=
EXTT0=
EXTT1=
EXTT2=
EXTT3=
EXTT4=
EXTT5=
EXTT6=
EXTT7=
EXTT8=
EXTT9=
EXTT10=
EXTT11=
EXTT12=
EXTT13=
PLAYORDER=
